<?xml version="1.0" encoding="UTF-8"?>
<svg id="Layer_2" data-name="Layer 2" xmlns="http://www.w3.org/2000/svg" xmlns:xlink="http://www.w3.org/1999/xlink" viewBox="0 0 1441.84 1441.84">
  <defs>
    <style>
      .cls-1, .cls-2 {
        fill: none;
      }

      .cls-3 {
        fill: url(#linear-gradient-2);
      }

      .cls-2 {
        opacity: .6;
        stroke: #fff;
        stroke-miterlimit: 10;
        stroke-width: .85px;
      }

      .cls-4 {
        fill: url(#linear-gradient);
      }

      .cls-5 {
        fill: #fff;
      }

      .cls-6 {
        fill: #52c0a9;
      }

      .cls-7 {
        clip-path: url(#clippath);
      }
    </style>
    <linearGradient id="linear-gradient" x1="719.31" y1="176.88" x2="722.58" y2="1245.93" gradientUnits="userSpaceOnUse">
      <stop offset="0" stop-color="#6964ac"/>
      <stop offset=".14" stop-color="#5f5aa7"/>
      <stop offset="1" stop-color="#5853a3"/>
    </linearGradient>
    <linearGradient id="linear-gradient-2" x1="662.61" y1="699.53" x2="787.98" y2="580.57" gradientUnits="userSpaceOnUse">
      <stop offset="0" stop-color="#fff"/>
      <stop offset=".08" stop-color="#fbfefe"/>
      <stop offset=".15" stop-color="#f1fbfe"/>
      <stop offset=".21" stop-color="#dff7fd"/>
      <stop offset=".27" stop-color="#c7f1fc"/>
      <stop offset=".32" stop-color="#a7e9fa"/>
      <stop offset=".38" stop-color="#80dff9"/>
      <stop offset=".44" stop-color="#52d4f6"/>
      <stop offset=".49" stop-color="#1ec7f4"/>
      <stop offset=".51" stop-color="#00c0f3"/>
      <stop offset=".67" stop-color="#1ec0d7"/>
      <stop offset=".89" stop-color="#43c0b5"/>
      <stop offset="1" stop-color="#52c0a9"/>
    </linearGradient>
    <clipPath id="clippath">
      <rect class="cls-1" x="158.42" y="178.6" width="1125" height="1084.65"/>
    </clipPath>
  </defs>
  <g id="Screen_01" data-name="Screen 01">
    <g id="Background">
      <path class="cls-4" d="M1283.42,1230.63V178.6H158.42v1052.03c0,18.02,14.61,32.62,32.62,32.62h1059.76c18.02,0,32.62-14.61,32.62-32.62Z"/>
      <g>
        <g>
          <path class="cls-5" d="M561.57,780.48v-.18c0-17.76,13.3-32.3,32.21-32.3,9.64,0,15.97,2.86,21.42,7.05,1.16.89,2.14,2.41,2.14,4.37,0,3.03-2.41,5.35-5.44,5.35-1.52,0-2.59-.54-3.3-1.07-4.28-3.48-8.92-5.62-14.9-5.62-11.87,0-20.61,9.82-20.61,22.04v.18c0,12.23,8.66,22.13,20.61,22.13,6.6,0,11.07-2.14,15.62-5.98.8-.71,1.96-1.25,3.3-1.25,2.77,0,5.18,2.32,5.18,5.09,0,1.7-.8,3.03-1.78,3.93-5.89,5.18-12.58,8.39-22.67,8.39-18.2,0-31.77-14.19-31.77-32.12Z"/>
          <path class="cls-5" d="M630.19,754.07c0-3.03,2.41-5.44,5.53-5.44s5.44,2.41,5.44,5.44v20.97h29.8v-20.97c0-3.03,2.41-5.44,5.44-5.44s5.53,2.41,5.53,5.44v52.47c0,3.03-2.41,5.44-5.53,5.44s-5.44-2.41-5.44-5.44v-21.33h-29.8v21.33c0,3.03-2.41,5.44-5.44,5.44s-5.53-2.41-5.53-5.44v-52.47Z"/>
          <path class="cls-5" d="M696.58,751.75c0-3.21,2.68-5.26,6.16-5.26s6.16,2.05,6.16,5.26v.54c0,3.21-2.68,5.35-6.16,5.35s-6.16-2.14-6.16-5.35v-.54ZM697.38,769.33c0-3.03,2.32-5.44,5.35-5.44s5.44,2.41,5.44,5.44v37.3c0,3.03-2.41,5.35-5.44,5.35s-5.35-2.32-5.35-5.35v-37.3Z"/>
          <path class="cls-5" d="M723.53,754.61c0-3.12,2.41-5.53,5.53-5.53h19.1c14.63,0,23.74,8.3,23.74,20.88v.18c0,14.01-11.24,21.33-24.99,21.33h-12.4v15.08c0,3.03-2.41,5.44-5.44,5.44s-5.53-2.41-5.53-5.44v-51.93ZM747.26,781.56c8.3,0,13.47-4.64,13.47-11.15v-.18c0-7.32-5.26-11.15-13.47-11.15h-12.76v22.49h12.76Z"/>
          <path class="cls-5" d="M779.65,784.23c0-2.94,2.41-5.35,5.26-5.35h16.78c2.86,0,5.27,2.41,5.27,5.35s-2.41,5.26-5.27,5.26h-16.78c-2.86,0-5.26-2.41-5.26-5.26Z"/>
          <path class="cls-5" d="M818.11,751.75c0-3.21,2.68-5.26,6.16-5.26s6.16,2.05,6.16,5.26v.54c0,3.21-2.68,5.35-6.16,5.35s-6.16-2.14-6.16-5.35v-.54ZM818.91,769.33c0-3.03,2.32-5.44,5.35-5.44s5.44,2.41,5.44,5.44v37.3c0,3.03-2.41,5.35-5.44,5.35s-5.35-2.32-5.35-5.35v-37.3Z"/>
          <path class="cls-5" d="M860.4,759.25h-15.17c-2.86,0-5.09-2.32-5.09-5.09s2.23-5.09,5.09-5.09h41.49c2.77,0,5,2.32,5,5.09s-2.23,5.09-5,5.09h-15.26v47.29c0,3.03-2.5,5.44-5.53,5.44s-5.53-2.41-5.53-5.44v-47.29Z"/>
        </g>
        <path class="cls-3" d="M782.42,575.75h-113.68c-3.97,0-7.19,3.23-7.19,7.19v113.68c0,3.97,3.23,7.19,7.19,7.19h113.68c3.97,0,7.19-3.23,7.19-7.19v-113.68c0-3.97-3.23-7.19-7.19-7.19ZM783.86,637.1h-47.89c-.06,0-.12,0-.18,0-1.21-5.16-5.85-9.02-11.38-9.02-6.45,0-11.69,5.25-11.69,11.69s5.25,11.69,11.69,11.69c5.39,0,9.94-3.67,11.28-8.63.09,0,.18.01.28.01h47.89v53.77c0,.78-.66,1.44-1.44,1.44h-113.68c-.78,0-1.44-.66-1.44-1.44v-35.84h30.64l16.5,16.5c.54.54,1.27.84,2.03.84h32.98c1.62,4.51,5.94,7.74,11,7.74,6.45,0,11.69-5.25,11.69-11.69s-5.25-11.69-11.69-11.69c-5.84,0-10.69,4.3-11.55,9.89h-31.24l-16.5-16.5c-.54-.54-1.27-.84-2.03-.84h-31.83v-30h31.83c.76,0,1.49-.3,2.03-.84l16.5-16.5h31.35c1.11,5.31,5.82,9.31,11.45,9.31,6.45,0,11.69-5.25,11.69-11.69s-5.25-11.69-11.69-11.69c-5.28,0-9.75,3.52-11.2,8.33h-32.79c-.76,0-1.49.3-2.03.84l-16.5,16.5h-30.64v-36.33c0-.78.66-1.44,1.44-1.44h113.68c.78,0,1.44.66,1.44,1.44v54.16ZM730.34,639.78c0,3.28-2.66,5.94-5.94,5.94s-5.94-2.66-5.94-5.94,2.66-5.94,5.94-5.94,5.94,2.66,5.94,5.94ZM754.51,674.17c0-3.28,2.66-5.94,5.94-5.94s5.94,2.66,5.94,5.94-2.66,5.94-5.94,5.94-5.94-2.66-5.94-5.94ZM754.51,605.3c0-3.28,2.66-5.94,5.94-5.94s5.94,2.66,5.94,5.94-2.66,5.94-5.94,5.94-5.94-2.66-5.94-5.94Z"/>
        <g>
          <path class="cls-6" d="M568.16,836.56h-4.75c-.89,0-1.59-.73-1.59-1.59s.7-1.59,1.59-1.59h12.99c.87,0,1.56.73,1.56,1.59s-.7,1.59-1.56,1.59h-4.78v14.8c0,.95-.78,1.7-1.73,1.7s-1.73-.75-1.73-1.7v-14.8Z"/>
          <path class="cls-6" d="M583.55,835.1c0-.98.75-1.73,1.73-1.73h6.98c2.46,0,4.38.73,5.64,1.95,1.03,1.06,1.62,2.51,1.62,4.22v.06c0,3.13-1.82,5.03-4.44,5.84l3.74,4.72c.33.42.56.78.56,1.31,0,.95-.81,1.59-1.65,1.59-.78,0-1.28-.36-1.68-.89l-4.75-6.06h-4.33v5.25c0,.95-.75,1.7-1.7,1.7s-1.73-.75-1.73-1.7v-16.25ZM592.02,843.06c2.46,0,4.02-1.28,4.02-3.27v-.06c0-2.09-1.51-3.24-4.05-3.24h-5v6.56h5.03Z"/>
          <path class="cls-6" d="M604.73,850.69l7.26-16.2c.39-.87,1.09-1.4,2.07-1.4h.17c.98,0,1.65.53,2.04,1.4l7.26,16.2c.14.25.2.5.2.73,0,.92-.7,1.65-1.62,1.65-.81,0-1.37-.47-1.68-1.2l-1.59-3.66h-9.5l-1.65,3.77c-.28.7-.87,1.09-1.59,1.09-.89,0-1.59-.7-1.59-1.59,0-.25.08-.5.22-.78ZM617.52,845.16l-3.44-7.9-3.44,7.9h6.87Z"/>
          <path class="cls-6" d="M627.83,843.2v-.06c0-5.56,4.16-10.11,10.08-10.11,3.02,0,5,.89,6.7,2.21.36.28.67.75.67,1.37,0,.95-.75,1.68-1.7,1.68-.47,0-.81-.17-1.03-.34-1.34-1.09-2.79-1.76-4.66-1.76-3.71,0-6.45,3.07-6.45,6.9v.06c0,3.83,2.71,6.93,6.45,6.93,2.07,0,3.46-.67,4.89-1.87.25-.22.61-.39,1.03-.39.87,0,1.62.73,1.62,1.59,0,.53-.25.95-.56,1.23-1.84,1.62-3.94,2.63-7.09,2.63-5.7,0-9.94-4.44-9.94-10.05Z"/>
          <path class="cls-6" d="M651.4,834.94c0-.95.75-1.7,1.73-1.7s1.7.75,1.7,1.7v8.27l9.27-9.33c.39-.42.81-.64,1.42-.64.95,0,1.59.75,1.59,1.59,0,.53-.22.92-.61,1.28l-6.09,5.86,6.59,8.18c.28.36.47.7.47,1.23,0,.95-.75,1.68-1.73,1.68-.67,0-1.09-.34-1.45-.81l-6.28-8.02-3.18,3.07v4.05c0,.95-.75,1.7-1.7,1.7s-1.73-.75-1.73-1.7v-16.42Z"/>
          <path class="cls-6" d="M673.61,834.94c0-.95.75-1.7,1.73-1.7s1.7.75,1.7,1.7v16.42c0,.95-.75,1.7-1.7,1.7s-1.73-.75-1.73-1.7v-16.42Z"/>
          <path class="cls-6" d="M684.36,834.99c0-.95.75-1.73,1.73-1.73h.36c.84,0,1.31.42,1.79,1.01l9.78,12.65v-12.01c0-.92.75-1.68,1.68-1.68s1.7.75,1.7,1.68v16.42c0,.95-.73,1.7-1.68,1.7h-.14c-.81,0-1.31-.42-1.79-1.03l-10.05-13.02v12.4c0,.92-.75,1.68-1.68,1.68s-1.7-.75-1.7-1.68v-16.39Z"/>
          <path class="cls-6" d="M707.66,843.2v-.06c0-5.47,4.19-10.11,10.08-10.11,2.93,0,4.89.7,6.68,1.98.33.25.7.73.7,1.4,0,.92-.75,1.7-1.7,1.7-.45,0-.78-.2-1.06-.39-1.26-.92-2.63-1.54-4.75-1.54-3.6,0-6.34,3.16-6.34,6.9v.06c0,4.02,2.65,6.98,6.65,6.98,1.84,0,3.52-.59,4.72-1.48v-3.66h-3.85c-.84,0-1.54-.64-1.54-1.48s.7-1.51,1.54-1.51h5.45c.98,0,1.73.75,1.73,1.73v5.22c0,.98-.39,1.68-1.2,2.18-1.68,1.12-4.02,2.12-6.95,2.12-6.12,0-10.14-4.36-10.14-10.05Z"/>
          <path class="cls-6" d="M742.13,843.2v-.06c0-5.56,4.16-10.11,10.08-10.11,3.02,0,5,.89,6.7,2.21.36.28.67.75.67,1.37,0,.95-.75,1.68-1.7,1.68-.47,0-.81-.17-1.03-.34-1.34-1.09-2.79-1.76-4.66-1.76-3.71,0-6.45,3.07-6.45,6.9v.06c0,3.83,2.71,6.93,6.45,6.93,2.07,0,3.46-.67,4.89-1.87.25-.22.61-.39,1.03-.39.87,0,1.62.73,1.62,1.59,0,.53-.25.95-.56,1.23-1.84,1.62-3.94,2.63-7.09,2.63-5.7,0-9.94-4.44-9.94-10.05Z"/>
          <path class="cls-6" d="M765.9,834.94c0-.95.75-1.7,1.73-1.7s1.7.75,1.7,1.7v16.42c0,.95-.75,1.7-1.7,1.7s-1.73-.75-1.73-1.7v-16.42Z"/>
          <path class="cls-6" d="M776.65,835.1c0-.98.75-1.73,1.73-1.73h11.4c.87,0,1.56.7,1.56,1.56s-.7,1.56-1.56,1.56h-9.69v5.33h8.43c.87,0,1.56.7,1.56,1.56s-.7,1.56-1.56,1.56h-8.43v6.4c0,.95-.75,1.7-1.7,1.7s-1.73-.75-1.73-1.7v-16.25Z"/>
          <path class="cls-6" d="M797.07,835.1c0-.98.75-1.73,1.73-1.73h6.98c2.46,0,4.38.73,5.64,1.95,1.03,1.06,1.62,2.51,1.62,4.22v.06c0,3.13-1.82,5.03-4.44,5.84l3.74,4.72c.33.42.56.78.56,1.31,0,.95-.81,1.59-1.65,1.59-.78,0-1.28-.36-1.68-.89l-4.75-6.06h-4.33v5.25c0,.95-.75,1.7-1.7,1.7s-1.73-.75-1.73-1.7v-16.25ZM805.53,843.06c2.46,0,4.02-1.28,4.02-3.27v-.06c0-2.09-1.51-3.24-4.05-3.24h-5v6.56h5.03Z"/>
          <path class="cls-6" d="M818.24,850.69l7.26-16.2c.39-.87,1.09-1.4,2.07-1.4h.17c.98,0,1.65.53,2.04,1.4l7.26,16.2c.14.25.2.5.2.73,0,.92-.7,1.65-1.62,1.65-.81,0-1.37-.47-1.68-1.2l-1.59-3.66h-9.5l-1.65,3.77c-.28.7-.87,1.09-1.59,1.09-.89,0-1.59-.7-1.59-1.59,0-.25.08-.5.22-.78ZM831.03,845.16l-3.44-7.9-3.44,7.9h6.87Z"/>
          <path class="cls-6" d="M843.05,835.1c0-.98.75-1.73,1.73-1.73h5.56c6.14,0,10.39,4.22,10.39,9.72v.06c0,5.5-4.25,9.78-10.39,9.78h-5.56c-.98,0-1.73-.75-1.73-1.73v-16.09ZM850.34,849.79c4.11,0,6.79-2.76,6.79-6.59v-.06c0-3.83-2.68-6.65-6.79-6.65h-3.85v13.29h3.85Z"/>
          <path class="cls-6" d="M866.12,843.2v-.06c0-5.5,4.25-10.11,10.25-10.11s10.19,4.55,10.19,10.05v.06c0,5.5-4.25,10.11-10.25,10.11s-10.19-4.55-10.19-10.05ZM882.96,843.2v-.06c0-3.8-2.76-6.95-6.65-6.95s-6.59,3.1-6.59,6.9v.06c0,3.8,2.76,6.93,6.65,6.93s6.59-3.07,6.59-6.87Z"/>
        </g>
      </g>
      <g class="cls-7">
        <path class="cls-2" d="M1360.5.43H81.34C36.73.43.43,36.73.43,81.34v1279.15c0,44.62,36.3,80.92,80.92,80.92h1279.15c44.62,0,80.92-36.3,80.92-80.92V81.34c0-44.62-36.3-80.92-80.92-80.92ZM1376.68,690.76h-325.21c-.68,0-1.05,64.73,0,64.73h325.21v605c0,8.77-7.41,16.18-16.18,16.18H81.34c-8.77,0-16.18-7.41-16.18-16.18v-403.27h344.74l185.62,185.62c6.07,6.07,14.3,9.48,22.89,9.48h371.11c18.28,50.72,66.87,87.08,123.81,87.08,72.55,0,131.57-59.02,131.57-131.57s-59.02-131.57-131.57-131.57c-65.67,0-120.25,48.36-130.01,111.33h-351.5l-185.62-185.62c-6.07-6.07-14.3-9.48-22.89-9.48H65.16v-337.61h358.15c8.59,0,16.82-3.41,22.89-9.48l185.62-185.62h352.71c12.43,59.71,65.46,104.72,128.81,104.72,72.55,0,131.57-59.02,131.57-131.57s-59.02-131.57-131.57-131.57c-59.38,0-109.68,39.55-125.99,93.69h-368.93c-8.59,0-16.82,3.41-22.89,9.48l-185.62,185.62H65.16V81.34c0-8.77,7.41-16.18,16.18-16.18h1279.15c8.77,0,16.18,7.41,16.18,16.18v609.42ZM1046.49,1107.84c0-36.85,29.98-66.84,66.84-66.84s66.84,29.98,66.84,66.84-29.98,66.84-66.84,66.84-66.84-29.98-66.84-66.84ZM1046.49,332.93c0-36.85,29.98-66.84,66.84-66.84s66.84,29.98,66.84,66.84-29.98,66.84-66.84,66.84-66.84-29.98-66.84-66.84Z"/>
      </g>
    </g>
  </g>
</svg>