<?xml version="1.0" encoding="UTF-8"?>
<svg id="Layer_2" data-name="Layer 2" xmlns="http://www.w3.org/2000/svg" xmlns:xlink="http://www.w3.org/1999/xlink" viewBox="0 0 98.42 98.42">
  <defs>
    <style>
      .cls-1 {
        fill: url(#linear-gradient);
      }
    </style>
    <linearGradient id="linear-gradient" x1=".82" y1="95.13" x2="97.17" y2="3.7" gradientUnits="userSpaceOnUse">
      <stop offset="0" stop-color="#fff"/>
      <stop offset=".08" stop-color="#fbfefe"/>
      <stop offset=".15" stop-color="#f1fbfe"/>
      <stop offset=".21" stop-color="#dff7fd"/>
      <stop offset=".27" stop-color="#c7f1fc"/>
      <stop offset=".32" stop-color="#a7e9fa"/>
      <stop offset=".38" stop-color="#80dff9"/>
      <stop offset=".44" stop-color="#52d4f6"/>
      <stop offset=".49" stop-color="#1ec7f4"/>
      <stop offset=".51" stop-color="#00c0f3"/>
      <stop offset=".67" stop-color="#1ec0d7"/>
      <stop offset=".89" stop-color="#43c0b5"/>
      <stop offset="1" stop-color="#52c0a9"/>
    </linearGradient>
  </defs>
  <g id="Screen_01" data-name="Screen 01">
    <g id="Background">
      <path class="cls-1" d="M92.89,0H5.53C2.48,0,0,2.48,0,5.53v87.36c0,3.05,2.48,5.53,5.53,5.53h87.36c3.05,0,5.53-2.48,5.53-5.53V5.53c0-3.05-2.48-5.53-5.53-5.53ZM94,47.15h-36.81s-.09,0-.14,0c-.93-3.97-4.5-6.93-8.75-6.93-4.96,0-8.99,4.03-8.99,8.99s4.03,8.99,8.99,8.99c4.14,0,7.64-2.82,8.67-6.64.07,0,.14.01.21.01h36.81v41.32c0,.6-.51,1.11-1.11,1.11H5.53c-.6,0-1.11-.51-1.11-1.11v-27.54h23.55l12.68,12.68c.41.41.98.65,1.56.65h25.35c1.25,3.46,4.57,5.95,8.46,5.95,4.96,0,8.99-4.03,8.99-8.99s-4.03-8.99-8.99-8.99c-4.48,0-8.21,3.3-8.88,7.6h-24.01l-12.68-12.68c-.41-.41-.98-.65-1.56-.65H4.42v-23.06h24.46c.59,0,1.15-.23,1.56-.65l12.68-12.68h24.09c.85,4.08,4.47,7.15,8.8,7.15,4.96,0,8.99-4.03,8.99-8.99s-4.03-8.99-8.99-8.99c-4.06,0-7.49,2.7-8.6,6.4h-25.2c-.59,0-1.15.23-1.56.65l-12.68,12.68H4.42V5.53c0-.6.51-1.11,1.11-1.11h87.36c.6,0,1.11.51,1.11,1.11v41.62ZM52.87,49.21c0,2.52-2.05,4.56-4.56,4.56s-4.56-2.05-4.56-4.56,2.05-4.56,4.56-4.56,4.56,2.05,4.56,4.56ZM71.44,75.63c0-2.52,2.05-4.56,4.56-4.56s4.56,2.05,4.56,4.56-2.05,4.56-4.56,4.56-4.56-2.05-4.56-4.56ZM71.44,22.71c0-2.52,2.05-4.56,4.56-4.56s4.56,2.05,4.56,4.56-2.05,4.56-4.56,4.56-4.56-2.05-4.56-4.56Z"/>
    </g>
  </g>
</svg>