<?xml version="1.0" encoding="UTF-8"?>
<svg id="Layer_2" data-name="Layer 2" xmlns="http://www.w3.org/2000/svg" xmlns:xlink="http://www.w3.org/1999/xlink" viewBox="0 0 1691.48 2435.78">
  <defs>
    <style>
      .cls-1, .cls-2 {
        fill: none;
      }

      .cls-3 {
        fill: url(#linear-gradient-2);
      }

      .cls-4 {
        fill: url(#linear-gradient);
      }

      .cls-5 {
        fill: #fff;
      }

      .cls-2 {
        opacity: .6;
        stroke: #fff;
        stroke-miterlimit: 10;
      }

      .cls-6 {
        fill: #52c0a9;
      }

      .cls-7 {
        clip-path: url(#clippath);
      }
    </style>
    <linearGradient id="linear-gradient" x1="885.77" y1="2.52" x2="885.77" y2="2429.58" gradientUnits="userSpaceOnUse">
      <stop offset="0" stop-color="#6964ac"/>
      <stop offset=".14" stop-color="#5f5aa7"/>
      <stop offset="1" stop-color="#5853a3"/>
    </linearGradient>
    <linearGradient id="linear-gradient-2" x1="793.55" y1="1196.44" x2="974.08" y2="1025.13" gradientUnits="userSpaceOnUse">
      <stop offset="0" stop-color="#fff"/>
      <stop offset=".08" stop-color="#fbfefe"/>
      <stop offset=".15" stop-color="#f1fbfe"/>
      <stop offset=".21" stop-color="#dff7fd"/>
      <stop offset=".27" stop-color="#c7f1fc"/>
      <stop offset=".32" stop-color="#a7e9fa"/>
      <stop offset=".38" stop-color="#80dff9"/>
      <stop offset=".44" stop-color="#52d4f6"/>
      <stop offset=".49" stop-color="#1ec7f4"/>
      <stop offset=".51" stop-color="#00c0f3"/>
      <stop offset=".67" stop-color="#1ec0d7"/>
      <stop offset=".89" stop-color="#43c0b5"/>
      <stop offset="1" stop-color="#52c0a9"/>
    </linearGradient>
    <clipPath id="clippath">
      <rect class="cls-1" x="323.27" width="1125" height="2435.78"/>
    </clipPath>
  </defs>
  <g id="Screen_01" data-name="Screen 01">
    <g id="Background">
      <rect class="cls-4" x="323.27" width="1125" height="2435.78"/>
      <g>
        <g>
          <path class="cls-5" d="M648.06,1313.01v-.26c0-25.57,19.15-46.52,46.39-46.52,13.88,0,23,4.11,30.84,10.15,1.67,1.29,3.08,3.47,3.08,6.3,0,4.37-3.47,7.71-7.84,7.71-2.18,0-3.73-.77-4.75-1.54-6.17-5.01-12.85-8.1-21.46-8.1-17.09,0-29.68,14.13-29.68,31.74v.26c0,17.6,12.46,31.87,29.68,31.87,9.51,0,15.93-3.08,22.49-8.61,1.16-1.03,2.83-1.8,4.75-1.8,3.98,0,7.45,3.34,7.45,7.32,0,2.44-1.16,4.37-2.57,5.65-8.48,7.45-18.12,12.08-32.64,12.08-26.21,0-45.74-20.43-45.74-46.26Z"/>
          <path class="cls-5" d="M746.87,1274.98c0-4.37,3.47-7.84,7.97-7.84s7.84,3.47,7.84,7.84v30.2h42.92v-30.2c0-4.37,3.47-7.84,7.84-7.84s7.97,3.47,7.97,7.84v75.56c0,4.37-3.47,7.84-7.97,7.84s-7.84-3.47-7.84-7.84v-30.71h-42.92v30.71c0,4.37-3.47,7.84-7.84,7.84s-7.97-3.47-7.97-7.84v-75.56Z"/>
          <path class="cls-5" d="M842.46,1271.64c0-4.63,3.85-7.58,8.87-7.58s8.87,2.96,8.87,7.58v.77c0,4.63-3.85,7.71-8.87,7.71s-8.87-3.08-8.87-7.71v-.77ZM843.62,1296.95c0-4.37,3.34-7.84,7.71-7.84s7.84,3.47,7.84,7.84v53.71c0,4.37-3.47,7.71-7.84,7.71s-7.71-3.34-7.71-7.71v-53.71Z"/>
          <path class="cls-5" d="M881.27,1275.75c0-4.5,3.47-7.97,7.97-7.97h27.5c21.07,0,34.18,11.95,34.18,30.07v.26c0,20.17-16.19,30.71-35.98,30.71h-17.86v21.72c0,4.37-3.47,7.84-7.84,7.84s-7.97-3.47-7.97-7.84v-74.79ZM915.45,1314.56c11.95,0,19.4-6.68,19.4-16.06v-.26c0-10.54-7.58-16.06-19.4-16.06h-18.38v32.38h18.38Z"/>
          <path class="cls-5" d="M962.09,1318.41c0-4.24,3.47-7.71,7.58-7.71h24.16c4.11,0,7.58,3.47,7.58,7.71s-3.47,7.58-7.58,7.58h-24.16c-4.11,0-7.58-3.47-7.58-7.58Z"/>
          <path class="cls-5" d="M1017.47,1271.64c0-4.63,3.85-7.58,8.87-7.58s8.87,2.96,8.87,7.58v.77c0,4.63-3.85,7.71-8.87,7.71s-8.87-3.08-8.87-7.71v-.77ZM1018.62,1296.95c0-4.37,3.34-7.84,7.71-7.84s7.84,3.47,7.84,7.84v53.71c0,4.37-3.47,7.71-7.84,7.71s-7.71-3.34-7.71-7.71v-53.71Z"/>
          <path class="cls-5" d="M1078.37,1282.43h-21.84c-4.11,0-7.32-3.34-7.32-7.32s3.21-7.32,7.32-7.32h59.75c3.98,0,7.2,3.34,7.2,7.32s-3.21,7.32-7.2,7.32h-21.97v68.1c0,4.37-3.6,7.84-7.97,7.84s-7.97-3.47-7.97-7.84v-68.1Z"/>
        </g>
        <path class="cls-3" d="M966.07,1018.19h-163.7c-5.71,0-10.36,4.65-10.36,10.36v163.7c0,5.71,4.65,10.36,10.36,10.36h163.7c5.71,0,10.36-4.65,10.36-10.36v-163.7c0-5.71-4.65-10.36-10.36-10.36ZM968.14,1106.54h-68.97c-.09,0-.17,0-.26.01-1.75-7.44-8.43-12.99-16.39-12.99-9.28,0-16.84,7.55-16.84,16.84s7.55,16.84,16.84,16.84c7.76,0,14.31-5.28,16.25-12.43.13.01.26.02.4.02h68.97v77.43c0,1.12-.95,2.07-2.07,2.07h-163.7c-1.12,0-2.07-.95-2.07-2.07v-51.61h44.12l23.75,23.75c.78.78,1.83,1.21,2.93,1.21h47.49c2.34,6.49,8.56,11.14,15.84,11.14,9.28,0,16.84-7.55,16.84-16.84s-7.55-16.84-16.84-16.84c-8.4,0-15.39,6.19-16.64,14.25h-44.98l-23.75-23.75c-.78-.78-1.83-1.21-2.93-1.21h-45.83v-43.21h45.83c1.1,0,2.15-.44,2.93-1.21l23.75-23.75h45.14c1.59,7.64,8.38,13.4,16.48,13.4,9.28,0,16.84-7.55,16.84-16.84s-7.55-16.84-16.84-16.84c-7.6,0-14.04,5.06-16.12,11.99h-47.21c-1.1,0-2.15.44-2.93,1.21l-23.75,23.75h-44.12v-52.32c0-1.12.95-2.07,2.07-2.07h163.7c1.12,0,2.07.95,2.07,2.07v77.99ZM891.08,1110.4c0,4.72-3.84,8.55-8.55,8.55s-8.55-3.84-8.55-8.55,3.84-8.55,8.55-8.55,8.55,3.84,8.55,8.55ZM925.89,1159.92c0-4.72,3.84-8.55,8.55-8.55s8.55,3.84,8.55,8.55-3.84,8.55-8.55,8.55-8.55-3.84-8.55-8.55ZM925.89,1060.75c0-4.72,3.84-8.55,8.55-8.55s8.55,3.84,8.55,8.55-3.84,8.55-8.55,8.55-8.55-3.84-8.55-8.55Z"/>
        <g>
          <path class="cls-6" d="M657.54,1393.76h-6.84c-1.29,0-2.29-1.05-2.29-2.29s1.01-2.29,2.29-2.29h18.7c1.25,0,2.25,1.05,2.25,2.29s-1.01,2.29-2.25,2.29h-6.88v21.32c0,1.37-1.13,2.45-2.49,2.45s-2.49-1.09-2.49-2.45v-21.32Z"/>
          <path class="cls-6" d="M679.71,1391.66c0-1.41,1.09-2.49,2.49-2.49h10.05c3.54,0,6.31,1.05,8.12,2.82,1.49,1.53,2.33,3.62,2.33,6.07v.08c0,4.5-2.61,7.24-6.4,8.41l5.39,6.8c.48.6.8,1.13.8,1.89,0,1.37-1.17,2.29-2.37,2.29-1.13,0-1.85-.52-2.41-1.29l-6.84-8.73h-6.23v7.56c0,1.37-1.09,2.45-2.45,2.45s-2.49-1.09-2.49-2.45v-23.41ZM691.89,1403.13c3.54,0,5.79-1.85,5.79-4.71v-.08c0-3.02-2.17-4.67-5.83-4.67h-7.2v9.45h7.24Z"/>
          <path class="cls-6" d="M710.2,1414.11l10.46-23.33c.56-1.25,1.57-2.01,2.98-2.01h.24c1.41,0,2.37.76,2.94,2.01l10.46,23.33c.2.36.28.72.28,1.05,0,1.33-1.01,2.37-2.33,2.37-1.17,0-1.97-.68-2.41-1.73l-2.29-5.27h-13.67l-2.37,5.43c-.4,1.01-1.25,1.57-2.29,1.57-1.29,0-2.29-1.01-2.29-2.29,0-.36.12-.72.32-1.13ZM728.62,1406.14l-4.95-11.38-4.95,11.38h9.89Z"/>
          <path class="cls-6" d="M743.46,1403.33v-.08c0-8,5.99-14.56,14.52-14.56,4.34,0,7.2,1.29,9.65,3.18.52.4.97,1.09.97,1.97,0,1.37-1.09,2.41-2.45,2.41-.68,0-1.17-.24-1.49-.48-1.93-1.57-4.02-2.53-6.72-2.53-5.35,0-9.29,4.42-9.29,9.93v.08c0,5.51,3.9,9.97,9.29,9.97,2.98,0,4.99-.97,7.04-2.69.36-.32.88-.56,1.49-.56,1.25,0,2.33,1.05,2.33,2.29,0,.76-.36,1.37-.8,1.77-2.65,2.33-5.67,3.78-10.22,3.78-8.2,0-14.32-6.39-14.32-14.48Z"/>
          <path class="cls-6" d="M777.41,1391.42c0-1.37,1.09-2.45,2.49-2.45s2.45,1.09,2.45,2.45v11.9l13.35-13.43c.56-.6,1.17-.93,2.05-.93,1.37,0,2.29,1.09,2.29,2.29,0,.76-.32,1.33-.88,1.85l-8.77,8.45,9.49,11.78c.4.52.68,1.01.68,1.77,0,1.37-1.09,2.41-2.49,2.41-.97,0-1.57-.48-2.09-1.17l-9.05-11.54-4.58,4.42v5.83c0,1.37-1.09,2.45-2.45,2.45s-2.49-1.09-2.49-2.45v-23.65Z"/>
          <path class="cls-6" d="M809.39,1391.42c0-1.37,1.09-2.45,2.49-2.45s2.45,1.09,2.45,2.45v23.65c0,1.37-1.09,2.45-2.45,2.45s-2.49-1.09-2.49-2.45v-23.65Z"/>
          <path class="cls-6" d="M824.87,1391.5c0-1.37,1.09-2.49,2.49-2.49h.52c1.21,0,1.89.6,2.57,1.45l14.08,18.22v-17.29c0-1.33,1.09-2.41,2.41-2.41s2.45,1.09,2.45,2.41v23.65c0,1.37-1.05,2.45-2.41,2.45h-.2c-1.17,0-1.89-.6-2.57-1.49l-14.48-18.74v17.86c0,1.33-1.09,2.41-2.41,2.41s-2.45-1.09-2.45-2.41v-23.61Z"/>
          <path class="cls-6" d="M858.42,1403.33v-.08c0-7.88,6.03-14.56,14.52-14.56,4.22,0,7.04,1.01,9.61,2.86.48.36,1.01,1.05,1.01,2.01,0,1.33-1.09,2.45-2.45,2.45-.64,0-1.13-.28-1.53-.56-1.81-1.33-3.78-2.21-6.84-2.21-5.19,0-9.13,4.54-9.13,9.93v.08c0,5.79,3.82,10.05,9.57,10.05,2.65,0,5.07-.84,6.8-2.13v-5.27h-5.55c-1.21,0-2.21-.93-2.21-2.13s1.01-2.17,2.21-2.17h7.84c1.41,0,2.49,1.09,2.49,2.49v7.52c0,1.41-.56,2.41-1.73,3.14-2.41,1.61-5.79,3.06-10.01,3.06-8.81,0-14.6-6.27-14.6-14.48Z"/>
          <path class="cls-6" d="M908.05,1403.33v-.08c0-8,5.99-14.56,14.52-14.56,4.34,0,7.2,1.29,9.65,3.18.52.4.97,1.09.97,1.97,0,1.37-1.09,2.41-2.45,2.41-.68,0-1.17-.24-1.49-.48-1.93-1.57-4.02-2.53-6.72-2.53-5.35,0-9.29,4.42-9.29,9.93v.08c0,5.51,3.9,9.97,9.29,9.97,2.98,0,4.99-.97,7.04-2.69.36-.32.88-.56,1.49-.56,1.25,0,2.33,1.05,2.33,2.29,0,.76-.36,1.37-.8,1.77-2.65,2.33-5.67,3.78-10.22,3.78-8.2,0-14.32-6.39-14.32-14.48Z"/>
          <path class="cls-6" d="M942.28,1391.42c0-1.37,1.09-2.45,2.49-2.45s2.45,1.09,2.45,2.45v23.65c0,1.37-1.09,2.45-2.45,2.45s-2.49-1.09-2.49-2.45v-23.65Z"/>
          <path class="cls-6" d="M957.77,1391.66c0-1.41,1.09-2.49,2.49-2.49h16.41c1.25,0,2.25,1.01,2.25,2.25s-1.01,2.25-2.25,2.25h-13.96v7.68h12.15c1.25,0,2.25,1.01,2.25,2.25s-1.01,2.25-2.25,2.25h-12.15v9.21c0,1.37-1.09,2.45-2.45,2.45s-2.49-1.09-2.49-2.45v-23.41Z"/>
          <path class="cls-6" d="M987.17,1391.66c0-1.41,1.09-2.49,2.49-2.49h10.05c3.54,0,6.31,1.05,8.12,2.82,1.49,1.53,2.33,3.62,2.33,6.07v.08c0,4.5-2.61,7.24-6.39,8.41l5.39,6.8c.48.6.8,1.13.8,1.89,0,1.37-1.17,2.29-2.37,2.29-1.13,0-1.85-.52-2.41-1.29l-6.84-8.73h-6.23v7.56c0,1.37-1.09,2.45-2.45,2.45s-2.49-1.09-2.49-2.45v-23.41ZM999.36,1403.13c3.54,0,5.79-1.85,5.79-4.71v-.08c0-3.02-2.17-4.67-5.83-4.67h-7.2v9.45h7.24Z"/>
          <path class="cls-6" d="M1017.66,1414.11l10.46-23.33c.56-1.25,1.57-2.01,2.98-2.01h.24c1.41,0,2.37.76,2.94,2.01l10.46,23.33c.2.36.28.72.28,1.05,0,1.33-1.01,2.37-2.33,2.37-1.17,0-1.97-.68-2.41-1.73l-2.29-5.27h-13.67l-2.37,5.43c-.4,1.01-1.25,1.57-2.29,1.57-1.29,0-2.29-1.01-2.29-2.29,0-.36.12-.72.32-1.13ZM1036.08,1406.14l-4.95-11.38-4.95,11.38h9.89Z"/>
          <path class="cls-6" d="M1053.38,1391.66c0-1.41,1.09-2.49,2.49-2.49h8c8.85,0,14.96,6.07,14.96,14v.08c0,7.92-6.11,14.08-14.96,14.08h-8c-1.41,0-2.49-1.09-2.49-2.49v-23.17ZM1063.87,1412.82c5.91,0,9.77-3.98,9.77-9.49v-.08c0-5.51-3.86-9.57-9.77-9.57h-5.55v19.14h5.55Z"/>
          <path class="cls-6" d="M1086.6,1403.33v-.08c0-7.92,6.11-14.56,14.76-14.56s14.68,6.56,14.68,14.48v.08c0,7.92-6.11,14.56-14.76,14.56s-14.68-6.56-14.68-14.48ZM1110.85,1403.33v-.08c0-5.47-3.98-10.01-9.57-10.01s-9.49,4.46-9.49,9.93v.08c0,5.47,3.98,9.97,9.57,9.97s9.49-4.42,9.49-9.89Z"/>
        </g>
      </g>
      <g class="cls-7">
        <path class="cls-2" d="M1596.06,372.65H95.43c-52.35,0-94.93,42.59-94.93,94.93v1500.63c0,52.34,42.58,94.93,94.93,94.93h1500.63c52.35,0,94.93-42.59,94.93-94.93V467.58c0-52.34-42.58-94.93-94.93-94.93ZM1615.04,1182.51h-381.51c-.79,0-1.23,75.94,0,75.94h381.51v709.75c0,10.29-8.7,18.99-18.99,18.99H95.43c-10.29,0-18.99-8.69-18.99-18.99v-473.09h404.43l217.75,217.76c7.12,7.12,16.78,11.12,26.85,11.12h435.36c21.45,59.5,78.45,102.16,145.25,102.16,85.11,0,154.35-69.24,154.35-154.35s-69.24-154.35-154.35-154.35c-77.04,0-141.07,56.73-152.52,130.6h-412.36l-217.75-217.76c-7.12-7.12-16.78-11.12-26.85-11.12H76.44v-396.07h420.16c10.07,0,19.73-4,26.85-11.12l217.75-217.76h413.77c14.59,70.05,76.79,122.85,151.11,122.85,85.11,0,154.35-69.24,154.35-154.35s-69.24-154.35-154.35-154.35c-69.67,0-128.67,46.4-147.8,109.91h-432.81c-10.07,0-19.73,4-26.85,11.12l-217.75,217.76H76.44v-479.59c0-10.29,8.7-18.99,18.99-18.99h1500.63c10.29,0,18.99,8.7,18.99,18.99v714.93ZM1227.68,1671.8c0-43.23,35.17-78.41,78.41-78.41s78.41,35.17,78.41,78.41-35.17,78.41-78.41,78.41-78.41-35.17-78.41-78.41ZM1227.68,762.72c0-43.23,35.17-78.41,78.41-78.41s78.41,35.17,78.41,78.41-35.17,78.41-78.41,78.41-78.41-35.18-78.41-78.41Z"/>
      </g>
    </g>
  </g>
</svg>