<svg width="1695" height="1691" viewBox="0 0 1695 1691" fill="none" xmlns="http://www.w3.org/2000/svg">
<path opacity="0.6" fill-rule="evenodd" clip-rule="evenodd" d="M1695 1595.6C1695 1648.2 1652.11 1691 1599.37 1691L95.6272 1691C42.8934 1691 0.00012207 1648.2 0.00012207 1595.6L0.00012207 95.4025C0.00012207 42.8004 42.8934 0 95.6272 0L1599.37 0C1652.11 0 1695 42.8004 1695 95.4025L1695 1595.6ZM1599.37 1690C1651.56 1690 1694 1647.65 1694 1595.6L1694 95.4025C1694 43.3549 1651.56 1 1599.37 1L95.6272 1C43.4436 1 1.00012 43.3549 1.00012 95.4025L1.00012 1595.6C1.00012 1647.65 43.4436 1690 95.6272 1690L1599.37 1690ZM1599.36 1614.07C1609.4 1614.07 1617.89 1605.6 1617.89 1595.59V886.543H1236.09C1235.91 886.543 1235.78 886.453 1235.71 886.387C1235.68 886.356 1235.65 886.323 1235.63 886.293C1235.61 886.263 1235.6 886.235 1235.59 886.214C1235.54 886.126 1235.51 886.028 1235.49 885.945C1235.45 885.77 1235.41 885.531 1235.38 885.248C1235.32 884.675 1235.26 883.847 1235.2 882.806C1235.1 880.722 1235.02 877.75 1234.96 874.19C1234.84 867.068 1234.8 857.574 1234.83 848.083C1234.86 838.591 1234.95 829.099 1235.08 821.978C1235.15 818.418 1235.23 815.448 1235.31 813.367C1235.36 812.327 1235.4 811.503 1235.45 810.936C1235.47 810.655 1235.5 810.425 1235.52 810.261C1235.53 810.208 1235.54 810.152 1235.56 810.098C1235.56 810.072 1235.57 810.046 1235.58 810.022C1235.59 809.988 1235.61 809.925 1235.66 809.861C1235.68 809.822 1235.82 809.625 1236.09 809.625H1617.9L1617.9 95.3926C1617.9 85.3828 1609.41 76.9081 1599.37 76.9081L95.6272 76.9081C85.5908 76.9081 77.0978 85.3828 77.0978 95.3926V574.344H481.661L699.716 356.793C706.945 349.581 716.752 345.53 726.975 345.53L1160.31 345.53C1179.66 282.016 1238.88 235.652 1308.79 235.652C1394.35 235.652 1463.96 305.094 1463.96 390.457C1463.96 475.819 1394.35 545.262 1308.79 545.262C1234.22 545.262 1171.78 492.507 1156.96 422.448L742.945 422.448L524.889 639.999C517.66 647.21 507.853 651.261 497.63 651.261H77.0978L77.0978 1046.22L497.63 1046.22C507.853 1046.22 517.66 1050.27 524.889 1057.48L742.945 1275.03H1155.53C1167.22 1201.15 1231.49 1144.47 1308.79 1144.47C1394.35 1144.47 1463.96 1213.91 1463.96 1299.27C1463.96 1384.64 1394.35 1454.08 1308.79 1454.08C1241.76 1454.08 1184.54 1411.45 1162.89 1351.95H726.975C716.752 1351.95 706.945 1347.9 699.716 1340.69L481.661 1123.13L77.0978 1123.13V1595.59C77.0978 1605.61 85.5907 1614.07 95.6272 1614.07L1599.36 1614.07ZM1618.89 1595.59C1618.89 1606.15 1609.95 1615.07 1599.36 1615.07L95.6272 1615.07C85.041 1615.07 76.0978 1606.16 76.0978 1595.59V1122.13L482.074 1122.13L700.423 1339.98C707.464 1347 717.017 1350.95 726.975 1350.95H1163.59L1163.71 1351.28C1185.13 1410.57 1242.07 1453.08 1308.79 1453.08C1393.8 1453.08 1462.96 1384.08 1462.96 1299.27C1462.96 1214.47 1393.8 1145.47 1308.79 1145.47C1231.84 1145.47 1167.88 1202 1156.45 1275.61L1156.38 1276.03H742.531L524.183 1058.19C517.142 1051.16 507.589 1047.22 497.63 1047.22L76.0978 1047.22L76.0978 650.261H497.63C507.589 650.261 517.142 646.315 524.183 639.291L742.531 421.448L1157.77 421.448L1157.86 421.846C1172.43 491.648 1234.56 544.262 1308.79 544.262C1393.8 544.262 1462.96 475.265 1462.96 390.457C1462.96 305.649 1393.8 236.652 1308.79 236.652C1239.2 236.652 1180.27 282.888 1161.16 346.174L1161.06 346.53L726.975 346.53C717.017 346.53 707.464 350.476 700.423 357.501L482.074 575.344H76.0978V95.3926C76.0978 84.8282 85.0408 75.9081 95.6272 75.9081L1599.37 75.9081C1609.96 75.9081 1618.9 84.8282 1618.9 95.3926L1618.9 810.323L1618.6 810.625H1236.48C1236.47 810.732 1236.46 810.863 1236.44 811.019C1236.4 811.565 1236.35 812.372 1236.31 813.408C1236.23 815.478 1236.15 818.439 1236.08 821.997C1235.95 829.111 1235.86 838.598 1235.83 848.086C1235.8 857.574 1235.84 867.06 1235.96 874.173C1236.02 877.73 1236.1 880.689 1236.2 882.756C1236.26 883.792 1236.31 884.594 1236.38 885.133C1236.39 885.302 1236.41 885.437 1236.43 885.543H1618.89V1595.59ZM1308.8 1377.16C1351.86 1377.16 1386.87 1342.22 1386.87 1299.27C1386.87 1256.32 1351.86 1221.39 1308.8 1221.39C1265.75 1221.39 1230.73 1256.33 1230.73 1299.27C1230.73 1342.22 1265.75 1377.16 1308.8 1377.16ZM1387.87 1299.27C1387.87 1342.78 1352.41 1378.16 1308.8 1378.16C1265.2 1378.16 1229.73 1342.78 1229.73 1299.27C1229.73 1255.78 1265.2 1220.39 1308.8 1220.39C1352.41 1220.39 1387.87 1255.77 1387.87 1299.27ZM1308.8 468.344C1351.86 468.344 1386.87 433.407 1386.87 390.457C1386.87 347.507 1351.86 312.57 1308.8 312.57C1265.75 312.57 1230.73 347.517 1230.73 390.457C1230.73 433.397 1265.75 468.344 1308.8 468.344ZM1387.87 390.457C1387.87 433.962 1352.41 469.344 1308.8 469.344C1265.2 469.344 1229.73 433.952 1229.73 390.457C1229.73 346.962 1265.2 311.57 1308.8 311.57C1352.41 311.57 1387.87 346.952 1387.87 390.457Z" fill="white"/>
</svg>
