<svg width="476" height="400" viewBox="0 0 476 400" fill="none" xmlns="http://www.w3.org/2000/svg">
<path d="M0 294.82V294.56C0 268.99 19.15 248.04 46.39 248.04C60.27 248.04 69.39 252.15 77.23 258.19C78.9 259.48 80.31 261.66 80.31 264.49C80.31 268.86 76.84 272.2 72.47 272.2C70.29 272.2 68.74 271.43 67.72 270.66C61.55 265.65 54.87 262.56 46.26 262.56C29.17 262.56 16.58 276.69 16.58 294.3V294.56C16.58 312.16 29.04 326.43 46.26 326.43C55.77 326.43 62.19 323.35 68.75 317.82C69.91 316.79 71.58 316.02 73.5 316.02C77.48 316.02 80.95 319.36 80.95 323.34C80.95 325.78 79.79 327.71 78.38 328.99C69.9 336.44 60.26 341.07 45.74 341.07C19.53 341.07 0 320.64 0 294.81V294.82Z" fill="white"/>
<path d="M98.8101 256.79C98.8101 252.42 102.28 248.95 106.78 248.95C111.28 248.95 114.62 252.42 114.62 256.79V286.99H157.54V256.79C157.54 252.42 161.01 248.95 165.38 248.95C169.75 248.95 173.35 252.42 173.35 256.79V332.35C173.35 336.72 169.88 340.19 165.38 340.19C160.88 340.19 157.54 336.72 157.54 332.35V301.64H114.62V332.35C114.62 336.72 111.15 340.19 106.78 340.19C102.41 340.19 98.8101 336.72 98.8101 332.35V256.79Z" fill="white"/>
<path d="M194.4 253.45C194.4 248.82 198.25 245.87 203.27 245.87C208.29 245.87 212.14 248.83 212.14 253.45V254.22C212.14 258.85 208.29 261.93 203.27 261.93C198.25 261.93 194.4 258.85 194.4 254.22V253.45ZM195.56 278.76C195.56 274.39 198.9 270.92 203.27 270.92C207.64 270.92 211.11 274.39 211.11 278.76V332.47C211.11 336.84 207.64 340.18 203.27 340.18C198.9 340.18 195.56 336.84 195.56 332.47V278.76Z" fill="white"/>
<path d="M233.21 257.56C233.21 253.06 236.68 249.59 241.18 249.59H268.68C289.75 249.59 302.86 261.54 302.86 279.66V279.92C302.86 300.09 286.67 310.63 266.88 310.63H249.02V332.35C249.02 336.72 245.55 340.19 241.18 340.19C236.81 340.19 233.21 336.72 233.21 332.35V257.56ZM267.39 296.37C279.34 296.37 286.79 289.69 286.79 280.31V280.05C286.79 269.51 279.21 263.99 267.39 263.99H249.01V296.37H267.39Z" fill="white"/>
<path d="M314.03 300.22C314.03 295.98 317.5 292.51 321.61 292.51H345.77C349.88 292.51 353.35 295.98 353.35 300.22C353.35 304.46 349.88 307.8 345.77 307.8H321.61C317.5 307.8 314.03 304.33 314.03 300.22Z" fill="white"/>
<path d="M369.41 253.45C369.41 248.82 373.26 245.87 378.28 245.87C383.3 245.87 387.15 248.83 387.15 253.45V254.22C387.15 258.85 383.3 261.93 378.28 261.93C373.26 261.93 369.41 258.85 369.41 254.22V253.45ZM370.56 278.76C370.56 274.39 373.9 270.92 378.27 270.92C382.64 270.92 386.11 274.39 386.11 278.76V332.47C386.11 336.84 382.64 340.18 378.27 340.18C373.9 340.18 370.56 336.84 370.56 332.47V278.76Z" fill="white"/>
<path d="M430.31 264.24H408.47C404.36 264.24 401.15 260.9 401.15 256.92C401.15 252.94 404.36 249.6 408.47 249.6H468.22C472.2 249.6 475.42 252.94 475.42 256.92C475.42 260.9 472.21 264.24 468.22 264.24H446.25V332.34C446.25 336.71 442.65 340.18 438.28 340.18C433.91 340.18 430.31 336.71 430.31 332.34V264.24Z" fill="white"/>
<path d="M318.01 0H154.31C148.6 0 143.95 4.65005 143.95 10.36V174.06C143.95 179.77 148.6 184.42 154.31 184.42H318.01C323.72 184.42 328.37 179.77 328.37 174.06V10.36C328.37 4.65005 323.72 0 318.01 0ZM320.08 88.35H251.11C251.02 88.35 250.94 88.35 250.85 88.36C249.1 80.92 242.42 75.3701 234.46 75.3701C225.18 75.3701 217.62 82.92 217.62 92.21C217.62 101.5 225.17 109.05 234.46 109.05C242.22 109.05 248.77 103.77 250.71 96.6201C250.84 96.6301 250.97 96.64 251.11 96.64H320.08V174.07C320.08 175.19 319.13 176.14 318.01 176.14H154.31C153.19 176.14 152.24 175.19 152.24 174.07V122.46H196.36L220.11 146.21C220.89 146.99 221.94 147.42 223.04 147.42H270.53C272.87 153.91 279.09 158.56 286.37 158.56C295.65 158.56 303.21 151.01 303.21 141.72C303.21 132.43 295.66 124.88 286.37 124.88C277.97 124.88 270.98 131.07 269.73 139.13H224.75L201 115.38C200.22 114.6 199.17 114.17 198.07 114.17H152.24V70.96H198.07C199.17 70.96 200.22 70.5199 201 69.7499L224.75 45.9999H269.89C271.48 53.6399 278.27 59.4 286.37 59.4C295.65 59.4 303.21 51.85 303.21 42.56C303.21 33.27 295.66 25.72 286.37 25.72C278.77 25.72 272.33 30.78 270.25 37.71H223.04C221.94 37.71 220.89 38.15 220.11 38.92L196.36 62.67H152.24V10.35C152.24 9.23004 153.19 8.27997 154.31 8.27997H318.01C319.13 8.27997 320.08 9.23004 320.08 10.35V88.34V88.35ZM243.02 92.21C243.02 96.93 239.18 100.76 234.47 100.76C229.76 100.76 225.92 96.92 225.92 92.21C225.92 87.5 229.76 83.66 234.47 83.66C239.18 83.66 243.02 87.5 243.02 92.21ZM277.83 141.73C277.83 137.01 281.67 133.18 286.38 133.18C291.09 133.18 294.93 137.02 294.93 141.73C294.93 146.44 291.09 150.28 286.38 150.28C281.67 150.28 277.83 146.44 277.83 141.73ZM277.83 42.56C277.83 37.84 281.67 34.0099 286.38 34.0099C291.09 34.0099 294.93 37.85 294.93 42.56C294.93 47.27 291.09 51.11 286.38 51.11C281.67 51.11 277.83 47.27 277.83 42.56Z" fill="url(#paint0_linear_2_15)"/>
<path d="M9.4801 375.57H2.64014C1.35014 375.57 0.350098 374.52 0.350098 373.28C0.350098 372.04 1.36014 370.99 2.64014 370.99H21.3401C22.5901 370.99 23.5901 372.04 23.5901 373.28C23.5901 374.52 22.5801 375.57 21.3401 375.57H14.4601V396.89C14.4601 398.26 13.3302 399.34 11.9702 399.34C10.6102 399.34 9.4801 398.25 9.4801 396.89V375.57Z" fill="#52C0A9"/>
<path d="M31.6501 373.47C31.6501 372.06 32.7401 370.98 34.1401 370.98H44.1901C47.7301 370.98 50.5001 372.03 52.3101 373.8C53.8001 375.33 54.6401 377.42 54.6401 379.87V379.95C54.6401 384.45 52.0301 387.19 48.2401 388.36L53.6301 395.16C54.1101 395.76 54.4301 396.29 54.4301 397.05C54.4301 398.42 53.2601 399.34 52.0601 399.34C50.9301 399.34 50.2101 398.82 49.6501 398.05L42.8101 389.32H36.5801V396.88C36.5801 398.25 35.4901 399.33 34.1301 399.33C32.7701 399.33 31.6401 398.24 31.6401 396.88V373.47H31.6501ZM43.8301 384.94C47.3701 384.94 49.6201 383.09 49.6201 380.23V380.15C49.6201 377.13 47.4501 375.48 43.7901 375.48H36.5901V384.93H43.8301V384.94Z" fill="#52C0A9"/>
<path d="M62.1401 395.92L72.6001 372.59C73.1601 371.34 74.1701 370.58 75.5801 370.58H75.8201C77.2301 370.58 78.1901 371.34 78.7601 372.59L89.2202 395.92C89.4202 396.28 89.5001 396.64 89.5001 396.97C89.5001 398.3 88.4901 399.34 87.1701 399.34C86.0001 399.34 85.2001 398.66 84.7601 397.61L82.4702 392.34H68.8001L66.4301 397.77C66.0301 398.78 65.1801 399.34 64.1401 399.34C62.8501 399.34 61.8501 398.33 61.8501 397.05C61.8501 396.69 61.9701 396.33 62.1701 395.92H62.1401ZM80.5601 387.95L75.6101 376.57L70.6601 387.95H80.5501H80.5601Z" fill="#52C0A9"/>
<path d="M95.4004 385.14V385.06C95.4004 377.06 101.39 370.5 109.92 370.5C114.26 370.5 117.12 371.79 119.57 373.68C120.09 374.08 120.54 374.77 120.54 375.65C120.54 377.02 119.45 378.06 118.09 378.06C117.41 378.06 116.92 377.82 116.6 377.58C114.67 376.01 112.58 375.05 109.88 375.05C104.53 375.05 100.59 379.47 100.59 384.98V385.06C100.59 390.57 104.49 395.03 109.88 395.03C112.86 395.03 114.87 394.06 116.92 392.34C117.28 392.02 117.8 391.78 118.41 391.78C119.66 391.78 120.74 392.83 120.74 394.07C120.74 394.83 120.38 395.44 119.94 395.84C117.29 398.17 114.27 399.62 109.72 399.62C101.52 399.62 95.4004 393.23 95.4004 385.14Z" fill="#52C0A9"/>
<path d="M129.35 373.23C129.35 371.86 130.44 370.78 131.84 370.78C133.24 370.78 134.29 371.87 134.29 373.23V385.13L147.64 371.7C148.2 371.1 148.81 370.77 149.69 370.77C151.06 370.77 151.98 371.86 151.98 373.06C151.98 373.82 151.66 374.39 151.1 374.91L142.33 383.36L151.82 395.14C152.22 395.66 152.5 396.15 152.5 396.91C152.5 398.28 151.41 399.32 150.01 399.32C149.04 399.32 148.44 398.84 147.92 398.15L138.87 386.61L134.29 391.03V396.86C134.29 398.23 133.2 399.31 131.84 399.31C130.48 399.31 129.35 398.22 129.35 396.86V373.21V373.23Z" fill="#52C0A9"/>
<path d="M161.33 373.23C161.33 371.86 162.42 370.78 163.82 370.78C165.22 370.78 166.27 371.87 166.27 373.23V396.88C166.27 398.25 165.18 399.33 163.82 399.33C162.46 399.33 161.33 398.24 161.33 396.88V373.23Z" fill="#52C0A9"/>
<path d="M176.81 373.31C176.81 371.94 177.9 370.82 179.3 370.82H179.82C181.03 370.82 181.71 371.42 182.39 372.27L196.47 390.49V373.2C196.47 371.87 197.56 370.79 198.88 370.79C200.2 370.79 201.33 371.88 201.33 373.2V396.85C201.33 398.22 200.28 399.3 198.92 399.3H198.72C197.55 399.3 196.83 398.7 196.15 397.81L181.67 379.07V396.93C181.67 398.26 180.58 399.34 179.26 399.34C177.94 399.34 176.81 398.25 176.81 396.93V373.32V373.31Z" fill="#52C0A9"/>
<path d="M210.36 385.14V385.06C210.36 377.18 216.39 370.5 224.88 370.5C229.1 370.5 231.92 371.51 234.49 373.36C234.97 373.72 235.5 374.41 235.5 375.37C235.5 376.7 234.41 377.82 233.05 377.82C232.41 377.82 231.92 377.54 231.52 377.26C229.71 375.93 227.74 375.05 224.68 375.05C219.49 375.05 215.55 379.59 215.55 384.98V385.06C215.55 390.85 219.37 395.11 225.12 395.11C227.77 395.11 230.19 394.27 231.92 392.98V387.71H226.37C225.16 387.71 224.16 386.78 224.16 385.58C224.16 384.38 225.17 383.41 226.37 383.41H234.21C235.62 383.41 236.7 384.5 236.7 385.9V393.42C236.7 394.83 236.14 395.83 234.97 396.56C232.56 398.17 229.18 399.62 224.96 399.62C216.15 399.62 210.36 393.35 210.36 385.14Z" fill="#52C0A9"/>
<path d="M259.99 385.14V385.06C259.99 377.06 265.98 370.5 274.51 370.5C278.85 370.5 281.71 371.79 284.16 373.68C284.68 374.08 285.13 374.77 285.13 375.65C285.13 377.02 284.04 378.06 282.68 378.06C282 378.06 281.51 377.82 281.19 377.58C279.26 376.01 277.17 375.05 274.47 375.05C269.12 375.05 265.18 379.47 265.18 384.98V385.06C265.18 390.57 269.08 395.03 274.47 395.03C277.45 395.03 279.46 394.06 281.51 392.34C281.87 392.02 282.39 391.78 283 391.78C284.25 391.78 285.33 392.83 285.33 394.07C285.33 394.83 284.97 395.44 284.53 395.84C281.88 398.17 278.86 399.62 274.31 399.62C266.11 399.62 259.99 393.23 259.99 385.14Z" fill="#52C0A9"/>
<path d="M294.22 373.23C294.22 371.86 295.31 370.78 296.71 370.78C298.11 370.78 299.16 371.87 299.16 373.23V396.88C299.16 398.25 298.07 399.33 296.71 399.33C295.35 399.33 294.22 398.24 294.22 396.88V373.23Z" fill="#52C0A9"/>
<path d="M309.71 373.47C309.71 372.06 310.8 370.98 312.2 370.98H328.61C329.86 370.98 330.86 371.99 330.86 373.23C330.86 374.47 329.85 375.48 328.61 375.48H314.65V383.16H326.8C328.05 383.16 329.05 384.17 329.05 385.41C329.05 386.65 328.04 387.66 326.8 387.66H314.65V396.87C314.65 398.24 313.56 399.32 312.2 399.32C310.84 399.32 309.71 398.23 309.71 396.87V373.46V373.47Z" fill="#52C0A9"/>
<path d="M339.11 373.47C339.11 372.06 340.2 370.98 341.6 370.98H351.65C355.19 370.98 357.96 372.03 359.77 373.8C361.26 375.33 362.1 377.42 362.1 379.87V379.95C362.1 384.45 359.49 387.19 355.71 388.36L361.1 395.16C361.58 395.76 361.9 396.29 361.9 397.05C361.9 398.42 360.73 399.34 359.53 399.34C358.4 399.34 357.68 398.82 357.12 398.05L350.28 389.32H344.05V396.88C344.05 398.25 342.96 399.33 341.6 399.33C340.24 399.33 339.11 398.24 339.11 396.88V373.47ZM351.3 384.94C354.84 384.94 357.09 383.09 357.09 380.23V380.15C357.09 377.13 354.92 375.48 351.26 375.48H344.06V384.93H351.3V384.94Z" fill="#52C0A9"/>
<path d="M369.6 395.92L380.06 372.59C380.62 371.34 381.63 370.58 383.04 370.58H383.28C384.69 370.58 385.65 371.34 386.22 372.59L396.68 395.92C396.88 396.28 396.96 396.64 396.96 396.97C396.96 398.3 395.95 399.34 394.63 399.34C393.46 399.34 392.66 398.66 392.22 397.61L389.93 392.34H376.26L373.89 397.77C373.49 398.78 372.64 399.34 371.6 399.34C370.31 399.34 369.31 398.33 369.31 397.05C369.31 396.69 369.43 396.33 369.63 395.92H369.6ZM388.02 387.95L383.07 376.57L378.12 387.95H388.01H388.02Z" fill="#52C0A9"/>
<path d="M405.32 373.47C405.32 372.06 406.41 370.98 407.81 370.98H415.81C424.66 370.98 430.77 377.05 430.77 384.98V385.06C430.77 392.98 424.66 399.14 415.81 399.14H407.81C406.4 399.14 405.32 398.05 405.32 396.65V373.48V373.47ZM415.81 394.63C421.72 394.63 425.58 390.65 425.58 385.14V385.06C425.58 379.55 421.72 375.49 415.81 375.49H410.26V394.63H415.81Z" fill="#52C0A9"/>
<path d="M438.54 385.14V385.06C438.54 377.14 444.65 370.5 453.3 370.5C461.95 370.5 467.98 377.06 467.98 384.98V385.06C467.98 392.98 461.87 399.62 453.22 399.62C444.57 399.62 438.54 393.06 438.54 385.14ZM462.79 385.14V385.06C462.79 379.59 458.81 375.05 453.22 375.05C447.63 375.05 443.73 379.51 443.73 384.98V385.06C443.73 390.53 447.71 395.03 453.3 395.03C458.89 395.03 462.79 390.61 462.79 385.14Z" fill="#52C0A9"/>
<defs>
<linearGradient id="paint0_linear_2_15" x1="145.49" y1="178.25" x2="326.02" y2="6.94" gradientUnits="userSpaceOnUse">
<stop stop-color="white"/>
<stop offset="0.08" stop-color="#FBFEFE"/>
<stop offset="0.15" stop-color="#F1FBFE"/>
<stop offset="0.21" stop-color="#DFF7FD"/>
<stop offset="0.27" stop-color="#C7F1FC"/>
<stop offset="0.32" stop-color="#A7E9FA"/>
<stop offset="0.38" stop-color="#80DFF9"/>
<stop offset="0.44" stop-color="#52D4F6"/>
<stop offset="0.49" stop-color="#1EC7F4"/>
<stop offset="0.51" stop-color="#00C0F3"/>
<stop offset="0.67" stop-color="#1EC0D7"/>
<stop offset="0.89" stop-color="#43C0B5"/>
<stop offset="1" stop-color="#52C0A9"/>
</linearGradient>
</defs>
</svg>
